OpenSim_Sub03_CSBaseline_GRF.mot
version=1
nRows=46
nColumns=19
inDegrees=no
endheader
time	lFx	lFy	lFz	lCOPx	lCOPy	lCOPz	rFx	rFy	rFz	rCOPx	rCOPy	rCOPz	lMx	lMy	lMz	rMx	rMy	rMz
23.22000000	-65.30872822	484.19315778	41.39760666	1.16070286	0	-0.57268161	100.83518080	432.08174297	-28.94853689	0.76038845	0	-0.37263632	0	11.83406813	0	0	2.75856648	0
23.23000000	-65.90804978	520.42243970	46.90728023	1.15225855	0	-0.57438253	91.77670815	363.71547709	-23.05464727	0.75815115	0	-0.37422962	0	11.79583157	0	0	2.42426979	0
23.24000000	-63.14919355	543.82821680	52.90847254	1.14347929	0	-0.57592429	78.69576177	293.70390898	-17.49885805	0.76014020	0	-0.37755054	0	11.19379320	0	0	1.98870772	0
23.25000000	-58.94882797	560.71241559	59.57789208	1.13435870	0	-0.57724004	62.62065106	226.84906629	-12.94116195	0.76678564	0	-0.38297175	0	10.23887318	0	0	1.52534718	0
23.26000000	-55.26515562	577.18453478	66.25543421	1.12518356	0	-0.57833042	45.38144858	167.88693179	-9.91938748	0.77398278	0	-0.38823286	0	9.21076862	0	0	1.03840708	0
23.27000000	-52.79945036	597.13098119	71.83741151	1.11639312	0	-0.57923045	28.85567393	120.28147262	-8.35284378	0.76744794	0	-0.38532600	0	8.42326148	0	0	0.59601943	0
23.28000000	-51.16387305	621.83843967	75.60390677	1.10798172	0	-0.57994807	14.64222086	84.50504769	-7.47369889	0.71557063	0	-0.35790566	0	8.08476267	0	0	0.22199542	-0.00000000
23.29000000	-49.47530389	650.23504199	77.52693668	1.09969468	0	-0.58042536	4.02791028	58.39758102	-6.72742596	0.57678745	0	-0.28567233	0	8.26598555	0	0	-0.04032432	0.00000000
23.30000000	-47.17503375	679.93685362	78.12607009	1.09125262	0	-0.58064999	-2.77290512	39.31250648	-5.88812375	0.34497482	0	-0.16885916	0	8.90709333	0	0	-0.15963227	0.00000000
23.31000000	-44.31661826	708.35265587	78.10729267	1.08282398	0	-0.58075595	-6.52916784	25.60207420	-4.92226928	0.12986800	0	-0.06267498	0	9.77518849	0	0	-0.12686716	0.00000000
23.32000000	-41.42429069	733.37744924	78.18645936	1.07477588	0	-0.58091728	-8.04884377	16.15356456	-3.75233893	0.01378566	0	-0.00602735	0	10.61552224	0	0	-0.06024371	-0.00000000
23.33000000	-39.02413340	753.48859909	78.73688873	1.06737813	0	-0.58121946	-7.42231565	9.57060122	-2.40194398	-0.02312825	0	0.01166654	0	11.23282012	0	0	-0.01514026	0.00000000
23.34000000	-37.37905832	767.54036189	79.43903145	1.06083641	0	-0.58163922	-4.95249982	4.63699183	-1.14219769	-0.02229284	0	0.01100079	0	11.58186327	0	0	0.00367409	0.00000000
23.35000000	-36.44716259	775.10888752	79.69557553	1.05528483	0	-0.58209812	-2.14175992	1.17263590	-0.18690267	-0.01188394	0	0.00579749	0	11.73909621	0	0	0.00695665	0.00000000
23.36000000	-35.98198006	776.65486717	79.15929464	1.05055862	0	-0.58251868	-0.41529649	-0.49884020	0.27831531	-0.00370753	0	0.00177561	0	11.79023742	0	0	0.00464291	0.00000000
23.37000000	-35.52553982	773.09702865	77.87030800	1.04620771	0	-0.58284702	0.24269359	-0.92710478	0.29869126	0.00014323	0	-0.00009655	0	11.80027021	0	0	0.00191076	0.00000000
23.38000000	-34.77467681	765.32309976	76.06651246	1.04196109	0	-0.58302197	0.32536573	-0.85533853	0.29496471	0.00109330	0	-0.00054616	0	11.82377677	0	0	0.00031695	-0.00000000
23.39000000	-33.73744520	754.56304623	74.10692451	1.03783265	0	-0.58304175	0.24276413	-0.65817971	0.26214058	0.00084418	0	-0.00041511	0	11.81461539	0	0	-0.00024823	0.00000000
23.40000000	-32.70520108	742.73969880	72.25703387	1.03400048	0	-0.58299765	0.17355790	-0.45266115	0.18270553	0.00039266	0	-0.00019083	0	11.74846743	0	0	-0.00028383	-0.00000000
23.41000000	-31.93206166	731.85756649	70.72230711	1.03030173	0	-0.58294180	0.12419395	-0.26487658	0.16045450	0.00009413	0	-0.00004447	0	11.63981666	0	0	-0.00016350	0.00000000
23.42000000	-31.07802669	723.04492530	69.53594494	1.02633759	0	-0.58289774	0.06914301	-0.10296941	0.09828978	-0.00002762	0	0.00001445	0	11.48123588	0	0	-0.00005704	-0.00000000
23.43000000	-29.60061426	716.44127082	68.58120204	1.02192492	0	-0.58285902	0.03044425	-0.01110545	0.02126738	-0.00004711	0	0.00002339	0	11.27385691	0	0	-0.00000290	0.00000000
23.44000000	-27.31982904	711.78905215	67.77437700	1.01735978	0	-0.58289051	0.00452606	0.04207934	0.03597602	-0.00003071	0	0.00001505	0	11.03563906	0	0	0.00001271	0.00000000
23.45000000	-24.70672902	708.46888056	67.17094964	1.01289183	0	-0.58304834	-0.00781311	0.09359629	0.09131170	-0.00001235	0	0.00000598	0	10.76371428	0	0	0.00001101	-0.00000000
23.46000000	-22.27374948	705.61866076	66.79112189	1.00861902	0	-0.58335616	-0.01525876	0.10113711	0.12063260	-0.00000187	0	0.00000085	0	10.43906604	0	0	0.00000553	0.00000000
23.47000000	-20.23157332	702.90789391	66.58770656	1.00454758	0	-0.58380144	0.00145704	-0.02115084	0.11854602	0.00000175	0	-0.00000089	0	10.08375763	0	0	0.00000156	-0.00000000
23.48000000	-18.58100027	700.74449847	66.44802289	1.00061556	0	-0.58435956	0.02046858	-0.16022383	0.11279446	0.00000191	0	-0.00000094	0	9.74286202	0	0	-0.00000020	0.00000000
23.49000000	-17.37809671	699.85319852	66.33448246	0.99682631	0	-0.58503168	0.03947921	-0.15513413	0.11678315	0.00000108	0	-0.00000053	0	9.43675808	0	0	-0.00000058	0.00000000
23.50000000	-16.47429616	700.31900971	66.17916228	0.99305356	0	-0.58579517	0.06486784	-0.04026488	0.11616915	0.00000037	0	-0.00000018	0	9.18579762	0	0	-0.00000041	-0.00000000
23.51000000	-15.55878812	701.73729371	65.88865599	0.98934726	0	-0.58660776	0.08056587	0.05464371	0.10506394	0.00000002	0	-0.00000000	0	9.00895134	0	0	-0.00000018	-0.00000000
23.52000000	-14.46476094	703.83846538	65.51955229	0.98569062	0	-0.58742831	0.07376912	0.00452288	0.13664782	-0.00000008	0	0.00000004	0	8.88956018	0	0	-0.00000003	0.00000000
23.53000000	-13.32312035	706.64277665	65.25086073	0.98195997	0	-0.58823384	0.07256070	-0.13574410	0.15230332	-0.00000008	0	0.00000004	0	8.80077692	0	0	0.00000004	0.00000000
23.54000000	-12.16690324	710.19991243	65.21402305	0.97792657	0	-0.58898525	0.09998014	-0.21350109	0.13935716	-0.00000008	0	0.00000003	0	8.72268331	0	0	0.00000006	0.00000000
23.55000000	-10.86894089	714.36474109	65.39274307	0.97358482	0	-0.58965947	0.12499333	-0.18743337	0.13921384	-0.00000010	0	0.00000004	0	8.63137165	0	0	0.00000007	-0.00000000
23.56000000	-9.39951274	718.66088310	65.74318051	0.96886064	0	-0.59020333	0.12717991	-0.09885582	0.13040891	-0.00000013	0	0.00000004	0	8.51959052	0	0	0.00000002	0.00000000
23.57000000	-7.86456516	722.66360940	66.18456091	0.96388151	0	-0.59063943	0.09342719	-0.03809897	0.14012140	-0.00000006	0	0.00000002	0	8.38882607	0	0	-0.00000016	0.00000000
23.58000000	-6.38107262	726.02998103	66.63982046	0.95881472	0	-0.59100139	0.05284600	-0.03100280	0.12683491	0.00000033	0	-0.00000011	0	8.24169819	0	0	-0.00000056	-0.00000000
23.59000000	-4.84129308	728.83003240	67.00316501	0.95367205	0	-0.59132276	0.01586847	0.01986500	0.09310942	0.00000123	0	-0.00000040	0	8.08406859	0	0	-0.00000110	-0.00000000
23.60000000	-3.24807117	731.48416129	67.26692947	0.94835495	0	-0.59165520	0.00005569	0.15055172	0.11248534	0.00000252	0	-0.00000084	0	7.89396440	0	0	-0.00000125	-0.00000000
23.61000000	-1.66684042	734.23762420	67.43780416	0.94285897	0	-0.59205471	-0.00467828	0.27654161	0.13770541	0.00000305	0	-0.00000103	0	7.68669727	0	0	0.00000035	-0.00000000
23.62000000	-0.17015490	736.97712720	67.60088527	0.93737595	0	-0.59255032	-0.01628155	0.33156932	0.17039623	-0.00000024	0	0.00000001	0	7.46756795	0	0	0.00000580	0.00000000
23.63000000	1.41649553	739.32554972	67.82060456	0.93182745	0	-0.59306810	-0.02919988	0.29755990	0.18954615	-0.00001230	0	0.00000396	0	7.19484419	0	0	0.00001641	-0.00000000
23.64000000	3.41375117	741.39580174	68.13386218	0.92597446	0	-0.59353944	-0.01538056	0.12947627	0.17108213	-0.00003672	0	0.00001205	0	6.86403853	0	0	0.00002820	0.00000000
23.65000000	5.97586281	743.69496692	68.49132927	0.91972726	0	-0.59391154	-0.00041855	-0.05644304	0.15572543	-0.00006568	0	0.00002186	0	6.56462743	0	0	0.00002404	-0.00000000
23.66000000	8.94582517	746.80598852	68.94904740	0.91331688	0	-0.59418102	0.00292388	-0.15654733	0.15001101	-0.00006166	0	0.00002116	0	6.33667773	0	0	-0.00003339	0.00000000
23.67000000	12.15093125	750.77655044	69.46685901	0.90679685	0	-0.59433947	-0.01661625	-0.13881839	0.16835501	0.00006045	0	-0.00001816	0	6.20049635	0	0	-0.00019328	-0.00000000
